<svg width="50" height="59" viewBox="0 0 50 59" fill="none" xmlns="http://www.w3.org/2000/svg">
<path d="M26.299 14.25L42.7535 42.75C43.3309 43.75 42.6092 45 41.4545 45H8.54552C7.39082 45 6.66913 43.75 7.24648 42.75L23.701 14.25C24.2783 13.25 25.7217 13.25 26.299 14.25Z" stroke="#B88E2F" stroke-width="3"/>
<path d="M26.299 14.25L42.7535 42.75C43.3309 43.75 42.6092 45 41.4545 45H8.54552C7.39082 45 6.66913 43.75 7.24648 42.75L23.701 14.25C24.2783 13.25 25.7217 13.25 26.299 14.25Z" stroke="#B88E2F" stroke-width="3"/>
<path d="M26.299 44.75L42.7535 16.25C43.3309 15.25 42.6092 14 41.4545 14H8.54552C7.39082 14 6.66913 15.25 7.24648 16.25L23.701 44.75C24.2783 45.75 25.7217 45.75 26.299 44.75Z" stroke="#B88E2F" stroke-width="3"/>
<path d="M26.299 44.75L42.7535 16.25C43.3309 15.25 42.6092 14 41.4545 14H8.54552C7.39082 14 6.66913 15.25 7.24648 16.25L23.701 44.75C24.2783 45.75 25.7217 45.75 26.299 44.75Z" stroke="#B88E2F" stroke-width="3"/>
</svg>
